<svg id="Capa_1" enable-background="new 0 0 511.999 511.999" height="512" viewBox="0 0 511.999 511.999" width="512" xmlns="http://www.w3.org/2000/svg"><g><g><circle cx="346.065" cy="344.741" fill="#ffdecf" r="34.028"/><path d="m350.556 368.803c-13.289-13.289-13.289-34.834 0-48.123 2.921-2.921 6.242-5.199 9.786-6.836-12.577-5.809-27.97-3.532-38.337 6.836-13.289 13.289-13.289 34.834 0 48.123 10.367 10.368 25.76 12.645 38.337 6.836-3.545-1.637-6.865-3.915-9.786-6.836z" fill="#ffcebe"/><path d="m380.093 459.284v-48l-5.476-3.814c-1.193-.117-2.401-.18-3.625-.18h-49.854c-20.305 0-36.766 16.461-36.766 36.766v51.52c0 5.111 4.143 9.254 9.254 9.254h53.512 35.276 3.168l12-4.714v-28z" fill="#b3e59f"/><path d="m310.372 495.577v-51.52c0-20.305 16.461-36.766 36.766-36.766h-26c-20.305 0-36.766 16.461-36.766 36.766v51.52c0 5.111 4.143 9.254 9.254 9.254h26c-5.111.001-9.254-4.143-9.254-9.254z" fill="#95d6a4"/><path d="m473.511 378.769h-81.105c-9.825 0-17.79 7.965-17.79 17.789v62.302c0 9.825 7.965 17.789 17.789 17.789l2.342 1.801h77.667l1.096-1.801c9.825 0 17.789-7.964 17.789-17.789v-62.302c.002-9.824-7.963-17.789-17.788-17.789z" fill="#d3effb"/><path d="m405.932 458.861v-62.302c0-9.825 7.965-17.789 17.79-17.789h-31.315c-9.825 0-17.79 7.965-17.79 17.789v62.302c0 9.825 7.965 17.789 17.789 17.789l2.342 1.801h31.315l-2.342-1.801c-9.824 0-17.789-7.965-17.789-17.789z" fill="#b1e4f9"/><path d="m497.228 476.65h-128.538c-3.992 0-7.229 3.237-7.229 7.229 0 11.572 9.381 20.953 20.953 20.953h101.09c11.572 0 20.952-9.381 20.952-20.953 0-3.993-3.236-7.229-7.228-7.229z" fill="#e4f6ff"/><path d="m392.776 483.879c0-3.993 3.237-7.229 7.229-7.229h-31.315c-3.992 0-7.229 3.237-7.229 7.229 0 11.572 9.381 20.953 20.953 20.953h31.315c-11.572 0-20.953-9.381-20.953-20.953z" fill="#d3effb"/><circle cx="207.608" cy="41.861" fill="#ffdecf" r="34.028"/><path d="m212.098 65.922c-13.289-13.289-13.289-34.834 0-48.123 2.921-2.921 6.242-5.199 9.786-6.836-12.577-5.809-27.97-3.532-38.337 6.836-13.289 13.289-13.289 34.834 0 48.123 10.367 10.368 25.76 12.645 38.337 6.836-3.544-1.637-6.864-3.915-9.786-6.836z" fill="#ffcebe"/><path d="m241.636 156.404v-48l-5.476-3.814c-1.193-.117-2.401-.18-3.625-.18h-49.854c-20.305 0-36.766 16.461-36.766 36.766v51.52c0 5.111 4.143 9.254 9.254 9.254h53.512 35.276 3.168l12-4.714v-28z" fill="#dd636e"/><path d="m171.915 192.697v-51.52c0-20.305 16.461-36.766 36.766-36.766h-26c-20.305 0-36.766 16.461-36.766 36.766v51.52c0 5.111 4.143 9.254 9.254 9.254h26c-5.111 0-9.254-4.143-9.254-9.254z" fill="#da4a54"/><path d="m335.054 75.889h-81.105c-9.825 0-17.79 7.965-17.79 17.789v62.302c0 9.825 7.965 17.789 17.789 17.789l2.342 1.801h77.667l1.096-1.801c9.825 0 17.789-7.964 17.789-17.789v-62.302c.001-9.825-7.963-17.789-17.788-17.789z" fill="#d3effb"/><path d="m267.475 155.98v-62.302c0-9.825 7.965-17.789 17.79-17.789h-31.315c-9.825 0-17.79 7.965-17.79 17.789v62.302c0 9.825 7.965 17.789 17.789 17.789l2.342 1.801h31.315l-2.342-1.801c-9.824 0-17.789-7.964-17.789-17.789z" fill="#b1e4f9"/><path d="m358.77 173.769h-128.537c-3.992 0-7.229 3.237-7.229 7.229 0 11.572 9.381 20.953 20.953 20.953h101.09c11.572 0 20.952-9.381 20.952-20.953 0-3.992-3.236-7.229-7.229-7.229z" fill="#e4f6ff"/><path d="m254.319 180.998c0-3.993 3.237-7.229 7.229-7.229h-31.316c-3.992 0-7.229 3.237-7.229 7.229 0 11.572 9.381 20.953 20.953 20.953h31.315c-11.571 0-20.952-9.381-20.952-20.953z" fill="#d3effb"/><circle cx="69.15" cy="344.741" fill="#ffdecf" r="34.028"/><path d="m73.64 368.803c-13.289-13.289-13.289-34.834 0-48.123 2.921-2.921 6.242-5.199 9.786-6.836-12.577-5.809-27.97-3.532-38.337 6.836-13.289 13.289-13.289 34.834 0 48.123 10.367 10.368 25.76 12.645 38.337 6.836-3.544-1.637-6.864-3.915-9.786-6.836z" fill="#ffcebe"/><path d="m103.178 459.284v-48l-5.476-3.814c-1.193-.117-2.401-.18-3.625-.18h-49.854c-20.305 0-36.766 16.461-36.766 36.766v51.52c0 5.111 4.143 9.254 9.254 9.254h53.512 35.276 3.168l12-4.714v-28z" fill="#ffaa5b"/><path d="m33.457 495.577v-51.52c0-20.305 16.461-36.766 36.766-36.766h-26c-20.305 0-36.766 16.461-36.766 36.766v51.52c0 5.111 4.143 9.254 9.254 9.254h26c-5.111.001-9.254-4.143-9.254-9.254z" fill="#ff9838"/><path d="m196.596 378.769h-81.105c-9.825 0-17.79 7.965-17.79 17.789v62.302c0 9.825 7.965 17.789 17.789 17.789l2.342 1.801h77.668l1.096-1.801c9.825 0 17.789-7.964 17.789-17.789v-62.302c.001-9.824-7.964-17.789-17.789-17.789z" fill="#d3effb"/><path d="m129.017 458.861v-62.302c0-9.825 7.965-17.789 17.79-17.789h-31.315c-9.825 0-17.79 7.965-17.79 17.789v62.302c0 9.825 7.965 17.789 17.789 17.789l2.342 1.801h31.315l-2.342-1.801c-9.824 0-17.789-7.965-17.789-17.789z" fill="#b1e4f9"/><path d="m220.312 476.65h-128.537c-3.992 0-7.229 3.237-7.229 7.229 0 11.572 9.381 20.953 20.953 20.953h101.09c11.572 0 20.952-9.381 20.952-20.953 0-3.993-3.236-7.229-7.229-7.229z" fill="#e4f6ff"/><path d="m115.861 483.879c0-3.993 3.237-7.229 7.229-7.229h-31.315c-3.992 0-7.229 3.237-7.229 7.229 0 11.572 9.381 20.953 20.953 20.953h31.315c-11.572 0-20.953-9.381-20.953-20.953z" fill="#d3effb"/></g><g><path d="m163.697 347.04 53.303-37.339 53.305 37.341c3.392 2.378 8.069 1.553 10.445-1.84 2.377-3.393 1.553-8.069-1.84-10.445l-54.41-38.116v-58.822c0-4.143-3.357-7.5-7.5-7.5s-7.5 3.357-7.5 7.5v58.822l-54.408 38.114c-3.393 2.376-4.217 7.053-1.84 10.445 2.377 3.393 7.054 4.217 10.445 1.84z"/><path d="m166.123 41.528c0 22.954 18.573 41.528 41.528 41.528 22.951 0 41.527-18.573 41.527-41.528.001-22.954-18.574-41.528-41.527-41.528-22.951 0-41.528 18.573-41.528 41.528zm60.286-18.758c5.01 5.011 7.77 11.672 7.77 18.758 0 14.66-11.864 26.528-26.527 26.528s-26.528-11.865-26.528-26.528c0-14.661 11.865-26.528 26.528-26.528 7.084 0 13.746 2.759 18.757 7.77z"/><path d="m155.212 209.118h189.878c15.688 0 28.452-12.764 28.452-28.452 0-7.6-5.873-14.729-15.353-14.729 1.407-3.146 2.197-6.626 2.197-10.289v-13.651c0-4.142-3.357-7.5-7.5-7.5s-7.5 3.358-7.5 7.5v13.651c0 5.673-4.615 10.289-10.289 10.289h-81.104c-5.674 0-10.289-4.616-10.289-10.289 0-6.727 0-55.567 0-62.302 0-5.673 4.615-10.289 10.289-10.289h81.104c5.674 0 10.289 4.616 10.289 10.289v13.651c0 4.142 3.357 7.5 7.5 7.5s7.5-3.358 7.5-7.5v-13.652c0-13.944-11.345-25.289-25.289-25.289h-81.104c-13.944 0-25.289 11.345-25.289 25.289v3.233h-45.979c-24.408 0-44.266 19.858-44.266 44.266v51.52c-.001 9.239 7.515 16.754 16.753 16.754zm203.327-28.181c-.145 7.293-6.122 13.182-13.449 13.182h-101.091c-7.326 0-13.305-5.888-13.449-13.182zm-205.081-40.093c0-16.137 13.129-29.266 29.266-29.266h45.979v44.069c0 3.556.779 7.133 2.188 10.289-9.465 0-15.345 7.131-15.345 14.729 0 4.795 1.243 9.47 3.386 13.452h-33.479v-41.27c0-4.142-3.357-7.5-7.5-7.5s-7.5 3.358-7.5 7.5v41.27h-15.242c-.967 0-1.754-.787-1.754-1.754v-51.519z"/><path d="m39.828 315.043c-7.844 7.844-12.163 18.272-12.163 29.365 0 22.952 18.572 41.528 41.527 41.528 22.953 0 41.528-18.573 41.528-41.528.001-36.851-44.797-55.46-70.892-29.365zm55.893 29.365c0 14.662-11.865 26.528-26.528 26.528-14.661 0-26.527-11.865-26.527-26.528 0-14.757 11.955-26.516 26.528-26.516 14.604.001 26.527 11.791 26.527 26.516z"/><path d="m16.754 511.999h189.878c15.688 0 28.452-12.764 28.452-28.453 0-8.121-6.607-14.729-14.729-14.729h-.623c1.407-3.146 2.197-6.626 2.197-10.289v-62.303c0-13.944-11.345-25.289-25.289-25.289h-81.105c-13.944 0-25.289 11.345-25.289 25.289v3.233h-45.98c-24.409.001-44.266 19.858-44.266 44.267v51.521c0 9.237 7.516 16.753 16.754 16.753zm88.491-104.86v-10.913c0-5.674 4.615-10.289 10.289-10.289h81.105c5.674 0 10.289 4.615 10.289 10.289v62.303c0 5.674-4.615 10.289-10.289 10.289h-81.105c-5.674 0-10.289-4.615-10.289-10.289zm114.836 76.678c-.145 7.294-6.122 13.182-13.449 13.182h-101.09c-7.327 0-13.306-5.888-13.45-13.182zm-205.081-40.092c0-16.137 13.129-29.266 29.266-29.266h45.979v44.069c0 3.641.818 7.22 2.188 10.289-9.447 0-15.345 7.116-15.345 14.729 0 4.778 1.237 9.47 3.386 13.453h-33.477v-41.271c0-4.143-3.357-7.5-7.5-7.5s-7.5 3.357-7.5 7.5v41.271h-15.243c-.967 0-1.754-.787-1.754-1.754z"/><path d="m304.58 344.408c0 23.103 18.714 41.509 41.528 41.509 36.882 0 55.453-44.782 29.365-70.873 0-.001-.001-.001-.001-.001-26.115-26.113-70.892-7.465-70.892 29.365zm60.286 18.758c-16.681 16.684-45.286 4.769-45.286-18.758 0-14.753 11.949-26.515 26.528-26.515 6.793 0 13.587 2.585 18.758 7.756 10.344 10.344 10.344 27.174 0 37.517z"/><path d="m289.187 116.996c-4.143 0-7.5 3.358-7.5 7.5s3.357 7.5 7.5 7.5h10.716c4.143 0 7.5-3.358 7.5-7.5s-3.357-7.5-7.5-7.5z"/><path d="m438.359 419.877h-10.715c-4.143 0-7.5 3.357-7.5 7.5s3.357 7.5 7.5 7.5h10.715c4.143 0 7.5-3.357 7.5-7.5s-3.357-7.5-7.5-7.5z"/><path d="m154.037 434.877h10.715c4.143 0 7.5-3.357 7.5-7.5s-3.357-7.5-7.5-7.5h-10.715c-4.143 0-7.5 3.357-7.5 7.5s3.358 7.5 7.5 7.5z"/><path d="m483.547 496.999h-33.045c-4.143 0-7.5 3.357-7.5 7.5s3.357 7.5 7.5 7.5h33.045c15.688 0 28.452-12.764 28.452-28.453 0-7.49-5.758-14.729-15.352-14.729 1.407-3.146 2.197-6.626 2.197-10.289v-62.303c0-13.944-11.345-25.289-25.289-25.289h-81.105c-13.944 0-25.289 11.345-25.289 25.289v3.233h-45.979c-24.408 0-44.266 19.857-44.266 44.266v51.521c0 9.238 7.516 16.754 16.754 16.754h121.833c4.143 0 7.5-3.357 7.5-7.5s-3.357-7.5-7.5-7.5h-33.045c-7.327 0-13.306-5.888-13.45-13.182h127.989c-.145 7.294-6.123 13.182-13.45 13.182zm-129.543-13.453c0 4.759 1.23 9.456 3.386 13.453h-33.478v-41.271c0-4.143-3.357-7.5-7.5-7.5s-7.5 3.357-7.5 7.5v41.271h-15.243c-.967 0-1.754-.787-1.754-1.754v-51.521c0-16.137 13.129-29.266 29.266-29.266h45.979v44.069c0 3.651.814 7.213 2.188 10.289-9.446.001-15.344 7.117-15.344 14.73zm129.84-25.018c0 5.674-4.615 10.289-10.289 10.289h-81.105c-5.674 0-10.289-4.615-10.289-10.289 0-6.725 0-55.568 0-62.303 0-5.674 4.615-10.289 10.289-10.289h81.105c5.674 0 10.289 4.615 10.289 10.289z"/></g></g></svg>