<svg id="Layer_1" data-name="Layer 1" xmlns="http://www.w3.org/2000/svg" viewBox="0 0 345.55 512"><defs><style>.cls-1{fill:#333;}</style></defs><title>man5</title><path class="cls-1" d="M428.78,453.07v50.4a8.54,8.54,0,0,1-17.07,0v-50.4a71,71,0,0,0-71-71,52.38,52.38,0,0,1-45.07-25.31,8.54,8.54,0,0,1,14.58-8.88A35.42,35.42,0,0,0,340.71,365a88,88,0,0,1,88.07,88.07Zm-148.9-85.53a8.52,8.52,0,0,1-6.52,10.15,81.66,81.66,0,0,1-63.47-12.41c-18,19.29-41.78,16.79-38.6,16.79a71,71,0,0,0-71,71v50.4a8.54,8.54,0,0,1-17.07,0v-50.4A88,88,0,0,1,171.29,365a35.57,35.57,0,0,0,35.65-35.56V327.2a114.3,114.3,0,0,1-65-98.81,34.82,34.82,0,0,1-26.75-33.72V150.43c-.47-21.65,2.75-75.87,42.29-114C206.33-10.62,284.62-7.63,342.19,20.09A8.55,8.55,0,0,1,344,34.3,115.16,115.16,0,0,1,414.46,85a9.42,9.42,0,0,1,2,6.7A8.65,8.65,0,0,1,414,97.12a55.73,55.73,0,0,0-16.12,39.35v58.2a8.53,8.53,0,0,1-17.06,0v-58.2a72.62,72.62,0,0,1,16.57-46.38,98.58,98.58,0,0,0-70.74-41.54l-15-1.6c-8.77-.94-10.49-13-2.34-16.37l6.82-2.81c-88.83-31-183.82,3.44-183.82,122.57v44.33a17.62,17.62,0,0,0,9.6,15.61V155a59.8,59.8,0,0,1,59.73-59.72H310.39A59.79,59.79,0,0,1,370.12,155v69.86c0,74.2-72.51,130.56-146.3,108.84a52.11,52.11,0,0,1-4.46,17.42A64.59,64.59,0,0,0,269.73,361a8.52,8.52,0,0,1,10.15,6.52ZM256,321.23a97.16,97.16,0,0,0,97.05-97.06V155a42.71,42.71,0,0,0-42.66-42.66H201.61A42.71,42.71,0,0,0,159,155v69.21A97.16,97.16,0,0,0,256,321.23Zm86.39,147h-25.6a8.54,8.54,0,0,0,0,17.07h25.6a8.54,8.54,0,0,0,0-17.07Z" transform="translate(-83.22 0)"/></svg>